<?xml version="1.0" encoding="utf-8"?>
<!-- Generator: Adobe Illustrator 15.1.0, SVG Export Plug-In . SVG Version: 6.00 Build 0)  -->
<!DOCTYPE svg PUBLIC "-//W3C//DTD SVG 1.1//EN" "http://www.w3.org/Graphics/SVG/1.1/DTD/svg11.dtd">
<svg version="1.1" id="shelf_1_" xmlns="http://www.w3.org/2000/svg" xmlns:xlink="http://www.w3.org/1999/xlink" x="0px" y="0px"
	 width="920px" height="400px" viewBox="0 0 920 400" enable-background="new 0 0 920 400" xml:space="preserve">
<g id="Layer_4">
	<defs>
		<filter id="Adobe_OpacityMaskFilter" filterUnits="userSpaceOnUse" x="127.838" y="151.438" width="640.404" height="81.215">
			<feColorMatrix  type="matrix" values="1 0 0 0 0  0 1 0 0 0  0 0 1 0 0  0 0 0 1 0"/>
		</filter>
	</defs>
	<mask maskUnits="userSpaceOnUse" x="127.838" y="151.438" width="640.404" height="81.215" id="front_1_">
		<g id="frontOpacity_Mask_4_" filter="url(#Adobe_OpacityMaskFilter)">
			
				<image overflow="visible" width="920" height="400" id="frontOpacity_Mask_5_" xlink:href="49BCE5CE.jpg"  transform="matrix(1 0 0 11.2449 0 -2466.8184)">
			</image>
		</g>
	</mask>
	<g id="front_2_" opacity="0.6" mask="url(#front_1_)">
		<g>
			<polygon fill-rule="evenodd" clip-rule="evenodd" fill="#FFFFFF" points="747,151.563 149.08,151.563 128,232.528 
				768.08,232.528 			"/>
		</g>
		<g>
			<polygon fill="none" stroke="#FFFFFF" stroke-width="0.25" stroke-miterlimit="10" points="747,151.563 149.08,151.563 
				128,232.528 768.08,232.528 			"/>
		</g>
	</g>
</g>
<defs>
	<filter id="Adobe_OpacityMaskFilter_1_" filterUnits="userSpaceOnUse" x="128" y="232.852" width="640.081" height="7.2">
		<feColorMatrix  type="matrix" values="1 0 0 0 0  0 1 0 0 0  0 0 1 0 0  0 0 0 1 0"/>
	</filter>
</defs>
<mask maskUnits="userSpaceOnUse" x="128" y="232.852" width="640.081" height="7.2" id="front_3_">
	<g id="frontOpacity_Mask_1_" filter="url(#Adobe_OpacityMaskFilter_1_)">
		<image overflow="visible" width="920" height="400" id="frontOpacity_Mask" xlink:href="49BCE5D2.jpg" >
		</image>
	</g>
</mask>
<g id="front" opacity="0.302" mask="url(#front_3_)">
	<g>
		<rect x="128" y="232.852" fill-rule="evenodd" clip-rule="evenodd" fill="#FFFFFF" width="640.081" height="7.2"/>
	</g>
</g>
<defs>
	<filter id="Adobe_OpacityMaskFilter_2_" filterUnits="userSpaceOnUse" x="148.276" y="151.759" width="619.531" height="80.574">
		<feColorMatrix  type="matrix" values="1 0 0 0 0  0 1 0 0 0  0 0 1 0 0  0 0 0 1 0"/>
	</filter>
</defs>
<mask maskUnits="userSpaceOnUse" x="148.276" y="151.759" width="619.531" height="80.574" id="gloss_1_">
	<g id="glossOpacity_Mask_1_" filter="url(#Adobe_OpacityMaskFilter_2_)">
		<image overflow="visible" width="920" height="400" id="glossOpacity_Mask" xlink:href="49BCE5D5.jpg" >
		</image>
	</g>
</mask>
<g id="gloss" opacity="0.2" mask="url(#gloss_1_)">
	<g>
		<path fill="#FFFFFF" d="M747.602,151.759l-599.326,0.25c0,18.003,48.256,67.009,142.768,67.009
			c144.518,0,164.521-45.506,314.039-45.506c107.367,0,158.651,48.215,162.724,58.821L747.602,151.759z"/>
	</g>
</g>
</svg>
