<?xml version="1.0" encoding="utf-8"?>
<!-- Generator: Adobe Illustrator 15.1.0, SVG Export Plug-In . SVG Version: 6.00 Build 0)  -->
<!DOCTYPE svg PUBLIC "-//W3C//DTD SVG 1.1//EN" "http://www.w3.org/Graphics/SVG/1.1/DTD/svg11.dtd">
<svg version="1.1" id="Layer_1" xmlns="http://www.w3.org/2000/svg" xmlns:xlink="http://www.w3.org/1999/xlink" x="0px" y="0px"
	 width="89.833px" height="29.5px" viewBox="0 0 89.833 29.5" enable-background="new 0 0 89.833 29.5" xml:space="preserve">
<path fill="#010202" d="M82.034,18.224c-0.142,0.094-0.34,0.14-0.593,0.14c-0.076,0-0.152-0.002-0.227-0.007
	c-0.075-0.006-0.149-0.012-0.226-0.019v-0.608c0.068,0.007,0.14,0.015,0.213,0.021s0.146,0.008,0.218,0.005
	c0.098-0.01,0.169-0.049,0.216-0.114s0.07-0.139,0.07-0.219c0-0.06-0.01-0.114-0.031-0.166l-0.94-2.522h0.785l0.608,1.842h0.01
	l0.589-1.842h0.764l-1.123,3.021C82.287,17.974,82.176,18.13,82.034,18.224 M80.427,14.734v0.494h-0.541v1.331
	c0,0.125,0.021,0.208,0.063,0.25c0.041,0.041,0.125,0.062,0.249,0.062c0.042,0,0.082-0.002,0.12-0.006s0.075-0.009,0.108-0.016
	v0.572c-0.062,0.011-0.132,0.018-0.208,0.021c-0.075,0.003-0.15,0.005-0.223,0.005c-0.115,0-0.223-0.008-0.325-0.022
	c-0.103-0.016-0.192-0.046-0.271-0.091s-0.14-0.109-0.185-0.193c-0.045-0.083-0.067-0.191-0.067-0.327v-1.586h-0.447v-0.494h0.447
	v-0.806h0.737v0.806H80.427z M78.316,17.423h-0.738v-2.688h0.738V17.423z M77.578,13.71h0.738v0.607h-0.738V13.71z M75.279,14.734
	v0.374h0.016c0.094-0.155,0.215-0.269,0.364-0.34c0.148-0.071,0.302-0.106,0.458-0.106c0.197,0,0.359,0.026,0.486,0.081
	c0.126,0.053,0.226,0.128,0.299,0.223c0.073,0.096,0.124,0.212,0.152,0.349c0.03,0.138,0.044,0.288,0.044,0.455v1.653h-0.737v-1.519
	c0-0.222-0.035-0.388-0.104-0.497c-0.068-0.108-0.191-0.163-0.369-0.163c-0.2,0-0.347,0.06-0.437,0.18
	c-0.09,0.119-0.135,0.315-0.135,0.59v1.409h-0.739v-2.688H75.279z M73.202,16.173c-0.047,0.015-0.097,0.028-0.151,0.039
	c-0.054,0.01-0.109,0.019-0.169,0.025c-0.059,0.008-0.118,0.016-0.177,0.026c-0.055,0.01-0.11,0.024-0.163,0.041
	c-0.054,0.018-0.101,0.041-0.141,0.07s-0.072,0.066-0.097,0.111c-0.023,0.045-0.035,0.103-0.035,0.173
	c0,0.065,0.012,0.12,0.035,0.166c0.024,0.045,0.058,0.08,0.1,0.106c0.041,0.026,0.09,0.044,0.145,0.054
	c0.057,0.012,0.113,0.017,0.172,0.017c0.146,0,0.259-0.024,0.339-0.073c0.079-0.048,0.139-0.106,0.177-0.174
	c0.038-0.068,0.061-0.136,0.069-0.205c0.01-0.07,0.014-0.125,0.014-0.167v-0.275C73.288,16.135,73.249,16.156,73.202,16.173
	 M71.743,15.13c0.077-0.114,0.174-0.206,0.292-0.276c0.117-0.068,0.25-0.118,0.396-0.147c0.148-0.029,0.297-0.044,0.445-0.044
	c0.135,0,0.272,0.01,0.411,0.028c0.138,0.02,0.265,0.057,0.379,0.111c0.115,0.056,0.208,0.133,0.281,0.232
	c0.073,0.099,0.108,0.229,0.108,0.392v1.399c0,0.121,0.008,0.237,0.021,0.349s0.038,0.194,0.073,0.249h-0.749
	c-0.015-0.041-0.025-0.084-0.034-0.127c-0.008-0.043-0.014-0.088-0.018-0.133c-0.118,0.122-0.257,0.206-0.416,0.255
	s-0.322,0.073-0.489,0.073c-0.128,0-0.247-0.017-0.358-0.048c-0.11-0.03-0.208-0.08-0.292-0.146
	c-0.083-0.065-0.147-0.149-0.194-0.249c-0.047-0.102-0.07-0.22-0.07-0.359c0-0.152,0.026-0.277,0.081-0.377
	c0.054-0.099,0.123-0.178,0.208-0.236c0.085-0.06,0.182-0.104,0.291-0.133c0.108-0.029,0.219-0.053,0.33-0.069
	c0.11-0.019,0.22-0.032,0.328-0.042c0.106-0.011,0.202-0.026,0.285-0.047c0.083-0.021,0.149-0.052,0.197-0.092
	c0.049-0.04,0.071-0.098,0.068-0.174c0-0.08-0.014-0.143-0.039-0.189c-0.026-0.048-0.062-0.083-0.104-0.109s-0.094-0.043-0.15-0.052
	c-0.058-0.009-0.119-0.014-0.185-0.014c-0.146,0-0.26,0.031-0.344,0.095c-0.083,0.062-0.131,0.166-0.145,0.312h-0.739
	C71.624,15.388,71.667,15.244,71.743,15.13 M67.755,14.734v0.364h0.01c0.098-0.139,0.215-0.246,0.352-0.323
	c0.137-0.075,0.294-0.113,0.471-0.113c0.17,0,0.325,0.032,0.465,0.099c0.142,0.066,0.247,0.182,0.32,0.348
	c0.08-0.117,0.188-0.222,0.325-0.312s0.299-0.135,0.485-0.135c0.144,0,0.274,0.017,0.396,0.052c0.121,0.035,0.225,0.09,0.312,0.166
	c0.086,0.077,0.153,0.176,0.201,0.299c0.05,0.124,0.073,0.272,0.073,0.445v1.799h-0.738v-1.523c0-0.091-0.004-0.175-0.011-0.255
	s-0.025-0.148-0.057-0.208c-0.031-0.059-0.077-0.105-0.139-0.141c-0.06-0.034-0.143-0.052-0.246-0.052
	c-0.104,0-0.188,0.02-0.253,0.06c-0.063,0.04-0.113,0.092-0.15,0.156c-0.036,0.063-0.061,0.137-0.072,0.219
	c-0.013,0.081-0.019,0.163-0.019,0.247v1.497h-0.738v-1.508c0-0.08-0.002-0.158-0.005-0.236c-0.004-0.078-0.019-0.15-0.044-0.216
	c-0.026-0.066-0.07-0.119-0.13-0.159c-0.062-0.04-0.15-0.06-0.269-0.06c-0.035,0-0.081,0.008-0.138,0.023
	c-0.057,0.015-0.113,0.045-0.166,0.088c-0.054,0.044-0.1,0.106-0.138,0.188c-0.038,0.082-0.058,0.188-0.058,0.319v1.561h-0.739
	v-2.688H67.755z M65.878,17.423v-0.374h-0.016c-0.093,0.156-0.215,0.268-0.364,0.338c-0.149,0.069-0.301,0.104-0.457,0.104
	c-0.198,0-0.36-0.026-0.486-0.078c-0.127-0.053-0.227-0.126-0.299-0.222c-0.073-0.095-0.124-0.212-0.153-0.349
	s-0.045-0.288-0.045-0.455v-1.653h0.738v1.519c0,0.222,0.035,0.388,0.104,0.497c0.069,0.108,0.192,0.164,0.37,0.164
	c0.2,0,0.346-0.061,0.436-0.181c0.09-0.119,0.136-0.315,0.136-0.59v-1.409h0.738v2.688H65.878z M61.255,13.71v1.425h1.503V13.71
	h0.816v3.713h-0.816v-1.602h-1.503v1.602h-0.815V13.71H61.255z M58.562,14.734v0.494h-0.541v1.331c0,0.125,0.021,0.208,0.062,0.25
	c0.042,0.041,0.125,0.062,0.25,0.062c0.041,0,0.081-0.002,0.119-0.006c0.039-0.004,0.075-0.009,0.11-0.016v0.572
	c-0.063,0.011-0.133,0.018-0.208,0.021c-0.077,0.003-0.151,0.005-0.225,0.005c-0.113,0-0.223-0.008-0.325-0.022
	c-0.102-0.016-0.191-0.046-0.27-0.091s-0.14-0.109-0.185-0.193c-0.046-0.083-0.068-0.191-0.068-0.327v-1.586h-0.447v-0.494h0.447
	v-0.806h0.739v0.806H58.562z M54.914,16.755c0.033,0.057,0.075,0.104,0.127,0.14c0.052,0.037,0.112,0.064,0.18,0.081
	c0.067,0.018,0.139,0.026,0.21,0.026c0.053,0,0.107-0.006,0.164-0.019c0.058-0.012,0.109-0.03,0.156-0.057s0.086-0.061,0.117-0.104
	s0.047-0.098,0.047-0.163c0-0.111-0.074-0.194-0.221-0.25c-0.147-0.056-0.354-0.111-0.616-0.166
	c-0.108-0.024-0.213-0.054-0.315-0.087c-0.102-0.032-0.192-0.075-0.272-0.13c-0.08-0.054-0.145-0.121-0.192-0.203
	c-0.049-0.08-0.072-0.181-0.072-0.299c0-0.173,0.033-0.314,0.101-0.426c0.068-0.111,0.157-0.199,0.268-0.263
	c0.111-0.064,0.236-0.109,0.375-0.135c0.139-0.026,0.28-0.039,0.427-0.039c0.146,0,0.286,0.014,0.424,0.042
	c0.137,0.026,0.259,0.073,0.366,0.14s0.196,0.153,0.268,0.263s0.114,0.247,0.128,0.413h-0.702c-0.011-0.142-0.064-0.238-0.162-0.289
	c-0.097-0.05-0.211-0.075-0.343-0.075c-0.041,0-0.087,0.004-0.135,0.009c-0.049,0.005-0.093,0.016-0.133,0.033
	s-0.073,0.042-0.102,0.075c-0.027,0.033-0.042,0.077-0.042,0.133c0,0.066,0.025,0.119,0.073,0.161
	c0.049,0.041,0.112,0.075,0.19,0.102c0.077,0.025,0.167,0.05,0.268,0.069c0.1,0.021,0.203,0.044,0.307,0.068
	c0.107,0.024,0.212,0.054,0.314,0.088c0.102,0.035,0.192,0.081,0.272,0.138c0.08,0.058,0.145,0.13,0.193,0.214
	c0.048,0.085,0.072,0.189,0.072,0.314c0,0.177-0.035,0.325-0.106,0.445c-0.07,0.119-0.164,0.215-0.277,0.288
	c-0.115,0.073-0.246,0.124-0.394,0.153c-0.146,0.029-0.297,0.045-0.45,0.045c-0.155,0-0.308-0.017-0.457-0.048
	c-0.149-0.03-0.281-0.083-0.397-0.155c-0.116-0.073-0.212-0.169-0.286-0.289c-0.075-0.119-0.116-0.27-0.122-0.449h0.702
	C54.865,16.629,54.881,16.697,54.914,16.755 M52.015,14.734v0.374h0.017c0.093-0.155,0.215-0.269,0.364-0.34
	c0.148-0.071,0.301-0.106,0.457-0.106c0.197,0,0.359,0.026,0.485,0.081c0.127,0.053,0.228,0.128,0.299,0.223
	c0.073,0.096,0.124,0.212,0.154,0.349c0.029,0.138,0.044,0.288,0.044,0.455v1.653h-0.738v-1.519c0-0.222-0.034-0.388-0.104-0.497
	c-0.07-0.108-0.193-0.163-0.37-0.163c-0.201,0-0.346,0.06-0.436,0.18c-0.092,0.119-0.137,0.315-0.137,0.59v1.409h-0.737v-2.688
	H52.015z M50.783,17.423h-0.738v-2.688h0.738V17.423z M50.044,13.71h0.738v0.607h-0.738V13.71z M48.648,16.173
	c-0.047,0.015-0.098,0.028-0.151,0.039c-0.053,0.01-0.11,0.019-0.169,0.025c-0.059,0.008-0.118,0.016-0.177,0.026
	c-0.056,0.01-0.11,0.024-0.163,0.041c-0.054,0.018-0.102,0.041-0.142,0.07s-0.071,0.066-0.096,0.111
	c-0.023,0.045-0.036,0.103-0.036,0.173c0,0.065,0.013,0.12,0.036,0.166c0.024,0.045,0.057,0.08,0.1,0.106
	c0.041,0.026,0.09,0.044,0.145,0.054c0.056,0.012,0.113,0.017,0.172,0.017c0.146,0,0.258-0.024,0.338-0.073
	c0.08-0.048,0.14-0.106,0.177-0.174c0.038-0.068,0.062-0.136,0.07-0.205c0.009-0.07,0.013-0.125,0.013-0.167v-0.275
	C48.734,16.135,48.695,16.156,48.648,16.173 M47.189,15.13c0.077-0.114,0.174-0.206,0.292-0.276c0.117-0.068,0.25-0.118,0.396-0.147
	c0.148-0.029,0.296-0.044,0.445-0.044c0.135,0,0.271,0.01,0.411,0.028c0.138,0.02,0.265,0.057,0.379,0.111
	c0.115,0.056,0.208,0.133,0.281,0.232c0.072,0.099,0.108,0.229,0.108,0.392v1.399c0,0.121,0.007,0.237,0.021,0.349
	c0.014,0.111,0.038,0.194,0.072,0.249h-0.749c-0.014-0.041-0.024-0.084-0.033-0.127s-0.015-0.088-0.019-0.133
	c-0.118,0.122-0.256,0.206-0.416,0.255c-0.159,0.049-0.322,0.073-0.488,0.073c-0.129,0-0.247-0.017-0.358-0.048
	c-0.111-0.03-0.208-0.08-0.292-0.146c-0.083-0.065-0.148-0.149-0.195-0.249c-0.046-0.102-0.069-0.22-0.069-0.359
	c0-0.152,0.026-0.277,0.08-0.377c0.055-0.099,0.123-0.178,0.208-0.236c0.086-0.06,0.183-0.104,0.291-0.133
	c0.109-0.029,0.22-0.053,0.33-0.069c0.111-0.019,0.221-0.032,0.328-0.042c0.107-0.011,0.203-0.026,0.286-0.047
	c0.083-0.021,0.149-0.052,0.197-0.092c0.049-0.04,0.071-0.098,0.067-0.174c0-0.08-0.013-0.143-0.038-0.189
	c-0.026-0.048-0.062-0.083-0.104-0.109s-0.094-0.043-0.151-0.052c-0.057-0.009-0.117-0.014-0.184-0.014
	c-0.146,0-0.26,0.031-0.344,0.095c-0.083,0.062-0.131,0.166-0.146,0.312H47.06C47.07,15.388,47.113,15.244,47.189,15.13
	 M46.558,17.621c-0.029,0.138-0.093,0.268-0.189,0.387c-0.097,0.12-0.238,0.221-0.421,0.304c-0.185,0.084-0.43,0.125-0.739,0.125
	c-0.131,0-0.266-0.016-0.403-0.049c-0.137-0.033-0.261-0.084-0.374-0.154c-0.112-0.068-0.205-0.157-0.28-0.267
	c-0.074-0.11-0.117-0.24-0.127-0.394h0.732c0.035,0.14,0.103,0.235,0.203,0.289s0.216,0.08,0.348,0.08
	c0.208,0,0.36-0.062,0.455-0.187c0.096-0.125,0.142-0.283,0.139-0.474v-0.354H45.89c-0.079,0.142-0.193,0.247-0.341,0.315
	c-0.146,0.066-0.303,0.101-0.465,0.101c-0.202,0-0.375-0.035-0.52-0.106c-0.146-0.07-0.267-0.168-0.359-0.292
	c-0.094-0.123-0.162-0.267-0.206-0.431c-0.043-0.165-0.064-0.339-0.064-0.522c0-0.174,0.024-0.341,0.075-0.502
	s0.124-0.304,0.222-0.427c0.097-0.123,0.217-0.221,0.36-0.294c0.145-0.073,0.311-0.108,0.497-0.108c0.178,0,0.332,0.032,0.465,0.099
	c0.135,0.066,0.245,0.177,0.336,0.333H45.9v-0.359h0.702v2.518C46.603,17.358,46.587,17.481,46.558,17.621 M45.546,16.726
	c0.08-0.041,0.146-0.097,0.198-0.166c0.052-0.068,0.091-0.147,0.117-0.237c0.025-0.088,0.039-0.181,0.039-0.277
	c0-0.111-0.011-0.216-0.031-0.314c-0.021-0.099-0.056-0.187-0.104-0.263s-0.112-0.137-0.192-0.182
	c-0.079-0.045-0.18-0.068-0.301-0.068c-0.104,0-0.194,0.021-0.269,0.062c-0.075,0.041-0.137,0.099-0.187,0.17
	c-0.052,0.07-0.087,0.151-0.109,0.243c-0.022,0.093-0.034,0.188-0.034,0.289c0,0.098,0.009,0.193,0.028,0.288
	c0.019,0.096,0.052,0.183,0.099,0.258c0.047,0.076,0.108,0.139,0.186,0.188c0.076,0.049,0.171,0.073,0.286,0.073
	C45.375,16.789,45.467,16.768,45.546,16.726 M42.489,13.71l1.388,3.713H43.03l-0.281-0.827H41.36l-0.291,0.827h-0.821l1.404-3.713
	H42.489z M42.536,15.987l-0.468-1.361h-0.012l-0.482,1.361H42.536z M36.943,16.755c0.033,0.057,0.075,0.104,0.127,0.14
	c0.052,0.037,0.111,0.064,0.18,0.081c0.067,0.018,0.138,0.026,0.21,0.026c0.052,0,0.107-0.006,0.164-0.019
	c0.057-0.012,0.109-0.03,0.156-0.057s0.086-0.061,0.117-0.104c0.03-0.044,0.047-0.098,0.047-0.163c0-0.111-0.074-0.194-0.222-0.25
	c-0.146-0.056-0.353-0.111-0.615-0.166c-0.108-0.024-0.213-0.054-0.315-0.087c-0.102-0.032-0.193-0.075-0.272-0.13
	c-0.08-0.054-0.145-0.121-0.192-0.203c-0.049-0.08-0.073-0.181-0.073-0.299c0-0.173,0.034-0.314,0.102-0.426
	s0.156-0.199,0.268-0.263c0.111-0.064,0.236-0.109,0.375-0.135c0.138-0.026,0.28-0.039,0.426-0.039c0.146,0,0.287,0.014,0.424,0.042
	c0.138,0.026,0.26,0.073,0.366,0.14c0.108,0.066,0.197,0.153,0.269,0.263c0.07,0.109,0.113,0.247,0.128,0.413h-0.702
	c-0.011-0.142-0.065-0.238-0.162-0.289c-0.097-0.05-0.211-0.075-0.343-0.075c-0.041,0-0.086,0.004-0.135,0.009
	c-0.05,0.005-0.094,0.016-0.134,0.033c-0.039,0.018-0.072,0.042-0.101,0.075s-0.042,0.077-0.042,0.133
	c0,0.066,0.025,0.119,0.073,0.161c0.049,0.041,0.111,0.075,0.189,0.102c0.078,0.025,0.167,0.05,0.269,0.069
	c0.1,0.021,0.203,0.044,0.307,0.068c0.107,0.024,0.212,0.054,0.314,0.088c0.102,0.035,0.192,0.081,0.272,0.138
	c0.08,0.058,0.145,0.13,0.193,0.214c0.048,0.085,0.071,0.189,0.071,0.314c0,0.177-0.034,0.325-0.105,0.445
	c-0.071,0.119-0.164,0.215-0.278,0.288c-0.115,0.073-0.246,0.124-0.393,0.153c-0.147,0.029-0.297,0.045-0.45,0.045
	c-0.156,0-0.308-0.017-0.457-0.048c-0.149-0.03-0.282-0.083-0.397-0.155c-0.116-0.073-0.213-0.169-0.286-0.289
	c-0.075-0.119-0.115-0.27-0.122-0.449h0.702C36.895,16.629,36.91,16.697,36.943,16.755 M35.157,17.08
	c-0.087,0.146-0.2,0.25-0.341,0.314s-0.299,0.097-0.477,0.097c-0.201,0-0.377-0.039-0.529-0.117
	c-0.153-0.078-0.278-0.185-0.378-0.317c-0.099-0.134-0.173-0.287-0.224-0.461c-0.05-0.173-0.075-0.353-0.075-0.54
	c0-0.181,0.025-0.354,0.075-0.523c0.051-0.168,0.125-0.315,0.224-0.444c0.1-0.128,0.224-0.231,0.372-0.31
	c0.149-0.077,0.322-0.116,0.521-0.116c0.159,0,0.311,0.033,0.455,0.101c0.144,0.068,0.257,0.168,0.34,0.299h0.011V13.71h0.738v3.713
	h-0.702V17.08H35.157z M35.126,15.751c-0.021-0.103-0.057-0.192-0.106-0.271c-0.051-0.078-0.115-0.141-0.195-0.189
	c-0.08-0.048-0.18-0.073-0.302-0.073c-0.121,0-0.224,0.025-0.307,0.073c-0.084,0.049-0.149,0.112-0.201,0.192
	c-0.05,0.079-0.086,0.17-0.108,0.273c-0.022,0.102-0.034,0.208-0.034,0.319c0,0.104,0.013,0.208,0.037,0.312
	c0.023,0.104,0.062,0.197,0.117,0.279c0.054,0.081,0.121,0.146,0.203,0.196c0.081,0.052,0.179,0.076,0.293,0.076
	c0.122,0,0.223-0.024,0.305-0.073c0.081-0.049,0.146-0.113,0.195-0.194c0.048-0.082,0.083-0.174,0.104-0.278
	c0.021-0.104,0.031-0.212,0.031-0.323C35.157,15.96,35.146,15.854,35.126,15.751 M31.813,14.734v0.499h0.011
	c0.034-0.083,0.081-0.16,0.14-0.23c0.06-0.071,0.127-0.132,0.203-0.183s0.158-0.09,0.244-0.116c0.087-0.028,0.177-0.042,0.271-0.042
	c0.049,0,0.103,0.009,0.161,0.025v0.687c-0.035-0.006-0.075-0.014-0.125-0.019c-0.048-0.005-0.095-0.008-0.14-0.008
	c-0.135,0-0.25,0.023-0.343,0.068c-0.094,0.045-0.169,0.106-0.228,0.185c-0.057,0.078-0.098,0.169-0.122,0.273
	c-0.023,0.104-0.035,0.216-0.035,0.338v1.211h-0.739v-2.688H31.813z M29.736,16.173c-0.047,0.015-0.098,0.028-0.151,0.039
	c-0.054,0.01-0.109,0.019-0.169,0.025c-0.059,0.008-0.118,0.016-0.177,0.026c-0.055,0.01-0.11,0.024-0.163,0.041
	c-0.054,0.018-0.101,0.041-0.141,0.07s-0.072,0.066-0.097,0.111c-0.023,0.045-0.036,0.103-0.036,0.173
	c0,0.065,0.013,0.12,0.036,0.166c0.024,0.045,0.058,0.08,0.1,0.106c0.041,0.026,0.09,0.044,0.145,0.054
	c0.056,0.012,0.113,0.017,0.172,0.017c0.146,0,0.258-0.024,0.338-0.073c0.08-0.048,0.14-0.106,0.178-0.174
	c0.037-0.068,0.061-0.136,0.069-0.205c0.009-0.07,0.014-0.125,0.014-0.167v-0.275C29.822,16.135,29.783,16.156,29.736,16.173
	 M28.277,15.13c0.077-0.114,0.174-0.206,0.292-0.276c0.117-0.068,0.25-0.118,0.396-0.147c0.148-0.029,0.296-0.044,0.445-0.044
	c0.135,0,0.271,0.01,0.411,0.028c0.138,0.02,0.265,0.057,0.379,0.111c0.115,0.056,0.208,0.133,0.281,0.232
	c0.072,0.099,0.108,0.229,0.108,0.392v1.399c0,0.121,0.007,0.237,0.021,0.349c0.014,0.111,0.038,0.194,0.073,0.249h-0.749
	c-0.015-0.041-0.025-0.084-0.034-0.127c-0.008-0.043-0.015-0.088-0.019-0.133c-0.117,0.122-0.256,0.206-0.416,0.255
	c-0.158,0.049-0.321,0.073-0.488,0.073c-0.128,0-0.248-0.017-0.358-0.048c-0.111-0.03-0.208-0.08-0.292-0.146
	c-0.083-0.065-0.148-0.149-0.195-0.249c-0.046-0.102-0.069-0.22-0.069-0.359c0-0.152,0.026-0.277,0.081-0.377
	c0.053-0.099,0.123-0.178,0.208-0.236c0.085-0.06,0.182-0.104,0.291-0.133c0.108-0.029,0.219-0.053,0.329-0.069
	c0.111-0.019,0.221-0.032,0.328-0.042c0.107-0.011,0.203-0.026,0.286-0.047c0.083-0.021,0.149-0.052,0.197-0.092
	c0.049-0.04,0.071-0.098,0.068-0.174c0-0.08-0.014-0.143-0.039-0.189c-0.026-0.048-0.062-0.083-0.104-0.109s-0.094-0.043-0.15-0.052
	c-0.058-0.009-0.119-0.014-0.185-0.014c-0.146,0-0.26,0.031-0.344,0.095c-0.083,0.062-0.131,0.166-0.146,0.312h-0.738
	C28.158,15.388,28.201,15.244,28.277,15.13 M26.889,14.701c-0.049-0.078-0.108-0.146-0.182-0.205
	c-0.073-0.06-0.155-0.105-0.247-0.139c-0.092-0.032-0.188-0.05-0.289-0.05c-0.183,0-0.339,0.036-0.468,0.107
	c-0.128,0.07-0.232,0.166-0.312,0.286c-0.079,0.119-0.138,0.256-0.175,0.407c-0.036,0.153-0.054,0.312-0.054,0.474
	c0,0.155,0.018,0.308,0.054,0.455c0.037,0.147,0.096,0.279,0.175,0.397s0.184,0.213,0.312,0.284
	c0.129,0.071,0.285,0.106,0.468,0.106c0.25,0,0.445-0.076,0.585-0.229c0.142-0.152,0.228-0.353,0.258-0.603h0.79
	c-0.021,0.232-0.073,0.441-0.16,0.629c-0.088,0.188-0.201,0.347-0.344,0.479c-0.142,0.132-0.309,0.232-0.499,0.301
	c-0.19,0.07-0.4,0.104-0.63,0.104c-0.284,0-0.54-0.049-0.767-0.148c-0.228-0.099-0.418-0.234-0.574-0.407
	c-0.156-0.174-0.276-0.378-0.359-0.611c-0.083-0.234-0.125-0.486-0.125-0.757c0-0.277,0.042-0.534,0.125-0.772
	c0.083-0.237,0.203-0.443,0.359-0.621c0.156-0.177,0.347-0.315,0.574-0.416c0.227-0.101,0.482-0.15,0.767-0.15
	c0.205,0,0.398,0.029,0.58,0.088s0.345,0.145,0.489,0.258c0.144,0.112,0.263,0.252,0.355,0.418c0.095,0.167,0.153,0.358,0.178,0.572
	h-0.79C26.969,14.864,26.938,14.778,26.889,14.701"/>
<rect x="3.997" y="8.094" transform="matrix(0.9563 -0.2923 0.2923 0.9563 -3.4322 3.1987)" fill="#010202" width="9.978" height="9.978"/>
<path fill="#FFFFFF" d="M2.939,9.868l2.832,9.263l9.261-2.832l-2.831-9.262L2.939,9.868z M5.576,19.496L2.573,9.674l9.822-3.003
	l3.004,9.822L5.576,19.496z"/>
<rect x="7.68" y="8.31" fill="#646567" width="9.979" height="9.979"/>
<path fill="#FFFFFF" d="M7.827,18.141h9.684V8.456H7.827V18.141z M17.805,18.434H7.534V8.163h10.271V18.434z"/>
<rect x="11.201" y="9.591" transform="matrix(0.9563 0.2923 -0.2923 0.9563 4.9697 -4.0962)" fill="#C8C9CB" width="9.978" height="9.978"/>
<path fill="#FFFFFF" d="M10.145,17.795l9.261,2.832l2.832-9.262l-9.262-2.831L10.145,17.795z M19.601,20.993L9.777,17.99
	l3.003-9.823l9.823,3.003L19.601,20.993z"/>
</svg>
